<svg width="45" height="45" viewBox="0 0 45 45" fill="none" xmlns="http://www.w3.org/2000/svg">
<path d="M44.8801 1.91601C44.7823 0.936831 44.0487 0.202588 43.0706 0.10467C30.6973 -0.874511 21.8452 5.14731 16.3188 12.687C13.2866 11.7078 10.0099 12.0506 7.02661 13.7152C4.14114 15.3308 1.74473 18.0727 0.179731 21.4019C-0.162613 22.1852 -0.0158946 23.0663 0.619887 23.6538C1.20676 24.2413 2.13598 24.3393 2.86958 23.9476C5.99958 22.283 9.52084 22.6257 11.6238 24.731L20.2313 33.3478L20.2802 33.3968C22.3832 35.5021 22.7255 39.0271 21.0627 42.1605C20.6715 42.8949 20.8182 43.8251 21.3562 44.4126C21.7474 44.8043 22.2365 45 22.7744 45C23.0679 45 23.3613 44.9511 23.6059 44.8042C26.9315 43.2375 29.6702 40.7896 31.2841 37.9499C32.9959 34.9634 33.3382 31.6831 32.3112 28.5987C34.512 26.9831 36.5171 25.2206 38.1799 23.2622C43.3151 17.3382 45.5648 10.1411 44.8801 1.91601ZM6.53755 19.0027C8.64052 16.9464 11.2815 15.6736 14.0691 16.1632C13.2866 17.534 12.6508 18.9048 12.064 20.2757C10.4012 19.3454 8.4938 18.9048 6.53755 19.0027ZM26.0512 38.4885C26.1001 36.4812 25.6599 34.5719 24.7796 32.9073C26.1979 32.3197 27.5673 31.6343 28.8877 30.8999C29.3768 33.6905 28.1541 36.3833 26.0512 38.4885ZM22.1387 29.7249L15.2429 22.8216C18.7152 13.5684 27.2738 3.62963 41.0165 3.92338C41.5056 20.3247 28.0074 27.4238 22.1387 29.7249ZM34.8054 10.19C35.3923 10.7776 35.7346 11.6099 35.7346 12.4422C35.7346 13.2745 35.3923 14.1069 34.8054 14.6944C34.2185 15.2819 33.3871 15.6246 32.5557 15.6246C31.7243 15.6246 30.8929 15.2819 30.306 14.6944C29.7191 14.1069 29.3768 13.2745 29.3768 12.4422C29.3768 11.6099 29.7191 10.7776 30.306 10.19C30.8929 9.60254 31.7243 9.25987 32.5557 9.25987C33.3871 9.25987 34.2185 9.60254 34.8054 10.19ZM7.27115 30.5571C5.02146 32.8092 4.92364 37.3135 4.92364 38.1947C4.92364 39.2718 5.80396 40.1531 6.8799 40.1531H6.9288C7.95583 40.1531 12.2596 40.0063 14.4604 37.8032C15.8298 36.4323 16.1232 35.0124 16.1232 34.0822C16.1232 32.7603 15.5852 31.4874 14.5582 30.4593C12.1129 27.9624 9.03177 28.7456 7.27115 30.5571ZM11.7216 35.0124C11.2326 35.502 10.1566 35.8447 9.03177 35.9916C9.2274 34.8655 9.56974 33.7885 10.0099 33.3478C10.3522 33.0051 10.6457 32.8092 10.988 32.8092C11.2326 32.8092 11.526 32.9561 11.8194 33.2498C12.1129 33.5436 12.2596 33.8374 12.2596 34.0822C12.2107 34.376 11.9662 34.7676 11.7216 35.0124Z" fill="#484C51"/>
</svg>
